<?xml version="1.0" encoding="utf-8"?>
<svg width="1423" height="1040" viewBox="0 0 1423 1040" version="1.1" xmlns="http://www.w3.org/2000/svg">
  <path d="" stroke="none" fill="#e3c746" fill-rule="evenodd"/>
  <path d="" stroke="none" fill="#cd1a5c" fill-rule="evenodd"/>
  <path d="M 966.984 979.28 C 966.967 981.755 1327.958 993.292 1328.243 993.008 C 1328.965 992.286 1193.657 879.828 1187.869 876.338" stroke="none" fill="#ffc62f" fill-rule="evenodd"/>
  <path d="M 966.847 979.464 C 967.136 979.753 1189.428 876.589 1188.578 875.804 C 1188.094 875.357 989.218 718.331 988.176 718.653" stroke="none" fill="#ffa922" fill-rule="evenodd"/>
  <path d="M 1001.871 737.121 C 1002.187 737.634 1386.168 1039.483 1386.168 1039.483 L 1408.526 687.791" stroke="none" fill="#fe3964" fill-rule="evenodd"/>
  <path d="M 489.662 655.143 C 491.815 655.447 997.769 737.592 997.769 737.592 C 1004.606 739.815 1408.871 688.306 1408.871 688.306 C 1408.871 688.306 915.683 609.366 914.805 608.488" stroke="none" fill="#fd285a" fill-rule="evenodd"/>
  <path d="M 694.659 804.311 C 694.376 804.594 966.795 979.455 967.102 979.148 C 967.409 978.841 986.924 735.743 986.924 735.743 C 986.924 735.743 852.886 714.136 850.247 713.611" stroke="none" fill="#fee63c" fill-rule="evenodd"/>
  <path d="M 695.015 804.554 C 695.716 803.975 852.194 714.17 850.251 713.573 C 848.981 713.182 770.558 700.545 769.623 700.575" stroke="none" fill="#ffd21f" fill-rule="evenodd"/>
  <path d="M 686.954 698.54 C 674.854 702.023 428.495 772.785 428.495 772.785 L 694.885 804.78 C 694.885 804.78 770.158 701.492 769.657 700.681 C 769.362 700.202 718.481 692.383 712.981 691.491" stroke="none" fill="#ffc21e" fill-rule="evenodd"/>
  <path d="M 458.486 708.784 C 442.925 741.928 428.667 772.802 428.667 772.802 L 714.453 691.37 C 714.453 691.37 572.163 669.032 522.871 661.081 C 511.321 659.218 487.613 644.345 487.613 644.345 L 458.486 708.784" stroke="none" fill="#ffb724" fill-rule="evenodd"/>
  <path d="M 497.485 654.635 C 498.169 654.897 914.67 609.405 915.491 608.943 C 915.586 608.89 912.278 607.086 905.808 604.24 C 841.844 576.103 489.371 424.057 489.371 424.057 M 1167.672 522.484 C 941.598 597.69 913.606 607.223 914.675 608.65 C 915.608 609.894 1408.799 688.351 1408.799 688.351 C 1408.799 688.351 1424.267 440.299 1423.048 439.09 C 1422.149 438.198 1361.789 457.909 1167.672 522.484" stroke="none" fill="#d20d65" fill-rule="evenodd"/>
  <path d="M 219.675 363.978 C 219.675 363.978 485.518 645.652 488.223 648.703 L 498.087 655.17 L 489.669 422.074" stroke="none" fill="#b50972" fill-rule="evenodd"/>
  <path d="M 225.057 645.534 C 227.317 646.687 428.701 772.835 428.701 772.835 C 428.701 772.835 488.719 648.99 486.574 646.683 C 474.537 633.734 472.386 631.934 459.678 618.461" stroke="none" fill="#ff9019" fill-rule="evenodd"/>
  <path d="M 209.334 367.144 C 209.223 367.17 225.326 645.254 225.326 645.755 C 225.326 646.336 459.386 618.891 459.689 618.589 C 459.689 618.589 221.409 365.641 220.446 364.673" fill-rule="evenodd" style="stroke: rgb(255, 113, 18); paint-order: fill; fill: rgb(255, 85, 38); stroke-opacity: 0;"/>
  <path d="M 192.002 370.337 L 17.786 598.276 L 225.709 645.485 C 225.709 645.485 209.506 367.435 209.345 367.275" stroke="none" fill="#fe6612" fill-rule="evenodd"/>
  <path d="M 33.881 398.995 C 33.521 399.315 17.752 598.325 17.752 598.325 C 17.752 598.325 192.362 370.191 192.157 370.234" stroke="none" fill="#f65600" fill-rule="evenodd"/>
  <path d="M 46.968 144.22 C 46.632 146.874 31.622 399.052 34.121 399.052 C 35.383 399.052 83.612 389.431 206.865 367.783 C 214.834 366.383 222.35 364.241 222.548 364.043 C 222.746 363.845 49.599 143.286 48.882 141.905 C 47.615 139.462 47.563 139.525 46.968 144.22" stroke="none" fill="#aa0665" fill-rule="evenodd"/>
  <path d="M 47.791 140.837 C 58.769 154.95 214.68 356.816 217.515 360.602 L 220.158 364.134 L 486.553 421.676" stroke="none" fill="#970365" fill-rule="evenodd"/>
  <path d="M 48.074 140.517 C 48.365 141.633 49.075 142.546 49.651 142.546 C 50.842 142.546 487.021 423.186 487.204 423.669 C 487.858 425.389 492.253 424.508 492.935 422.296 C 493.316 421.058 601.906 210.628 601.219 209.301 C 599.163 205.33 47.907 140.183 47.907 140.183" stroke="none" fill="#9e0466" fill-rule="evenodd"/>
  <path d="M 599.408 212.659 C 599.765 213.237 590.913 229.759 580.528 249.732 C 570.144 269.705 554.661 299.546 546.122 316.046 C 537.582 332.546 522.489 361.631 512.582 380.68 C 493.806 416.777 489.714 425.522 489.714 425.522 C 489.714 425.522 905.458 231.733 904.782 231.057 C 904.68 230.955 899.59 228.569 899.59 228.569 C 899.59 228.569 614.067 212.75 604.991 211.935 C 600.296 211.513 600.587 209.285 601.029 210.002" stroke="none" fill="#ad0564" fill-rule="evenodd"/>
  <path d="M 696.927 328.107 C 584.208 381.149 491.62 424.546 491.177 424.546 C 490.734 424.546 490.375 424.883 490.38 425.296 C 490.394 426.407 910.761 607.491 911.518 606.712 C 911.874 606.346 910.259 433.171 909.941 401.546 C 908.098 218.421 909.169 232.464 904.819 231.019 C 903.775 230.672 809.646 275.066 696.927 328.107" stroke="none" fill="#cf0673" fill-rule="evenodd"/>
  <path d="M 911.478 609.213 C 911.478 609.213 1423.316 439.01 1423.292 438.72 C 1423.254 438.247 1323.629 398.032 1187.871 344.18 C 1101.693 309.996 905.977 231.483 904.971 230.861" stroke="none" fill="#c20b67" fill-rule="evenodd"/>
  <path d="M 1241.602 276.555 C 1215.053 288.861 1192.955 300.659 1192.955 300.659 L 1233.703 362.768 C 1233.703 362.768 1423.148 438.92 1423.447 438.621 C 1423.823 438.246 1440.433 185.274 1440.102 184.944" stroke="none" fill="#7fe2c6" fill-rule="evenodd"/>
  <path d="M 1251.928 150.463 C 1251.733 150.784 1248.846 157.796 1245.514 166.046 C 1242.182 174.296 1191.608 300.029 1192.558 300.89 C 1193.082 301.363 1213.601 289.63 1240.421 277.158 C 1333.139 234.042 1440.09 184.901 1440.09 184.901 L 1440.871 174.12 L 1436.871 173.357 C 1434.671 172.938 1258.853 150.683 1255.077 150.221 C 1253.54 150.033 1252.123 150.142 1251.928 150.463" stroke="none" fill="#41b2ac" fill-rule="evenodd"/>
  <path d="M 1193.086 300.349 C 1193.509 300.356 1243.037 172.343 1246.35 164.15 C 1252.915 147.912 1254.521 149.33 1246.713 145.494 C 1244.894 144.6 1012.789 33.324 1011.829 33.324" stroke="none" fill="#26a4af" fill-rule="evenodd"/>
  <path d="M 1011.821 33.312 C 1011.95 33.648 992.191 49.902 965.155 72.097 C 906.856 119.958 814.72 195.115 815.189 195.549 C 815.596 195.926 835.421 203.31 856.871 211.833 C 978.226 260.055 1029.504 281.418 1121.465 318.083 C 1236.542 363.964 1234.096 363.391 1233.06 361.714 C 1233.06 361.714 1220.654 341.946 1206.854 321.046 C 1193.055 300.146 1145.138 227.573 1100.373 159.772" stroke="none" fill="#28939e" fill-rule="evenodd"/>
  <path d="M 1002.371 37.158 C 997.696 39.098 768.754 136.07 756.371 141.257 C 752.81 142.748 733.237 151.89 722.326 154.249 C 718.912 154.987 715.628 153.046 714.871 152.587 C 713.836 151.959 493.175 64.245 490.444 62.86 C 485.809 60.511 586.87 193.946 589.571 197.929 C 593.804 204.173 596.633 210.299 602.703 211.757 C 606.948 212.776 906.113 231.331 898.934 228.485 C 858.288 212.375 816.327 196.036 816.589 194.969 C 816.744 194.339 923.099 106.506 958.871 77.198 C 1015.139 31.098 1012.12 33.604 1011.371 33.62" stroke="none" fill="#0a7c97" fill-rule="evenodd"/>
  <path d="M 305.11 23.502 C 304.074 24.409 593.792 207.751 593.792 207.751 C 593.792 207.751 597.483 208.679 597.67 208.437 L 452.871 11.682 L 446.371 11.745" stroke="none" fill="#178296" fill-rule="evenodd"/>
  <path d="M 249.371 11.173 C 239.196 17.564 45.921 140.217 47.676 140.217 C 47.986 140.217 593.253 208.515 593.975 207.793 C 594.189 207.58 286.291 10.784 279.979 6.796 C 266.261 -1.871 271.284 -2.59 249.371 11.173" stroke="none" fill="#900264" fill-rule="evenodd"/>
  <path stroke="none" fill="#e3c746" fill-rule="evenodd"/>
  <path stroke="none" fill="#cd1a5c" fill-rule="evenodd"/>
</svg>